<?xml version="1.0" standalone="no"?>
<!DOCTYPE svg PUBLIC "-//W3C//DTD SVG 20010904//EN"
 "http://www.w3.org/TR/2001/REC-SVG-20010904/DTD/svg10.dtd">
<svg version="1.0" xmlns="http://www.w3.org/2000/svg"
 width="260.000000pt" height="260.000000pt" viewBox="0 0 260.000000 260.000000"
 preserveAspectRatio="xMidYMid meet">
<metadata>
Created by potrace 1.14, written by Peter Selinger 2001-2017
</metadata>
<g transform="translate(0.000000,260.000000) scale(0.100000,-0.100000)"
fill="#000000" stroke="none">
<path d="M1786 2038 c-22 -6 -57 -28 -81 -52 -64 -62 -82 -144 -46 -221 63
-135 226 -165 327 -60 109 113 60 293 -91 334 -46 13 -56 13 -109 -1z m142
-76 c84 -61 79 -187 -11 -243 -25 -15 -44 -19 -85 -16 -45 3 -59 9 -89 40 -31
30 -37 44 -41 89 -3 44 0 59 20 88 47 70 140 89 206 42z"/>
<path d="M1235 1961 c-16 -10 -103 -93 -192 -183 -160 -161 -163 -165 -163
-207 0 -36 6 -49 34 -77 29 -29 41 -34 81 -34 47 0 48 1 174 125 l127 124 75
-75 c40 -42 87 -82 103 -91 87 -46 198 58 153 143 -18 34 -252 267 -284 283
-32 16 -74 13 -108 -8z m217 -168 c76 -76 128 -136 128 -147 0 -28 -29 -56
-59 -56 -20 0 -50 23 -121 95 -52 52 -99 95 -105 95 -6 0 -66 -57 -135 -126
-69 -69 -136 -130 -149 -135 -33 -13 -71 12 -71 49 0 21 32 59 162 189 138
138 167 163 193 163 25 0 51 -21 157 -127z"/>
<path d="M1573 1467 l-83 -83 0 -62 c0 -72 13 -106 47 -121 15 -7 99 -11 224
-11 226 0 250 6 275 67 20 47 4 97 -40 124 -26 16 -51 19 -163 19 l-133 0 0
63 c0 59 -11 87 -34 87 -5 0 -47 -37 -93 -83z m79 -114 c8 -10 52 -13 164 -13
153 0 155 0 165 -24 8 -17 8 -29 0 -45 -12 -21 -16 -21 -219 -19 l-207 3 -3
53 c-3 50 -1 55 40 97 l43 44 3 -42 c2 -23 8 -47 14 -54z"/>
<path d="M1161 1329 c-26 -25 -31 -39 -31 -76 0 -45 2 -48 112 -159 61 -63
110 -115 107 -117 -2 -2 -53 -30 -114 -61 -60 -32 -122 -70 -137 -84 -74 -69
-21 -192 83 -192 34 0 365 171 419 217 40 33 57 91 40 135 -14 35 -258 290
-324 339 -55 41 -113 40 -155 -2z m107 -33 c15 -8 93 -82 175 -164 153 -156
164 -173 132 -219 -12 -17 -313 -189 -378 -215 -19 -8 -56 6 -69 26 -17 25 -7
56 25 79 17 13 82 50 142 82 61 31 117 63 125 71 13 12 0 29 -102 132 -64 64
-121 127 -127 140 -13 25 -2 54 27 71 22 13 18 13 50 -3z"/>
<path d="M800 955 c-235 -235 -245 -246 -245 -283 0 -49 27 -90 72 -108 67
-29 80 -20 336 235 130 130 237 242 237 250 0 16 -131 151 -146 151 -5 0 -119
-110 -254 -245z m295 135 l40 -41 -221 -219 c-229 -229 -245 -240 -286 -203
-41 37 -28 56 199 285 119 120 220 218 223 218 3 0 24 -18 45 -40z"/>
</g>
</svg>
